<?xml version="1.0" encoding="utf-8"?>
<!-- Generator: Adobe Illustrator 26.0.3, SVG Export Plug-In . SVG Version: 6.00 Build 0)  -->
<svg version="1.1" id="Layer_1" xmlns="http://www.w3.org/2000/svg" xmlns:xlink="http://www.w3.org/1999/xlink" x="0px" y="0px"
	 viewBox="0 0 400 400" style="enable-background:new 0 0 400 400;" xml:space="preserve">
<style type="text/css">
	.st0{fill:#11C18F;}
	.st1{fill:#FFFFFF;}
</style>
<g>
	<path class="st0" d="M370.3,0H29.7C13.3,0,0,13.3,0,29.7v340.6C0,386.7,13.3,400,29.7,400h340.6c16.4,0,29.7-13.3,29.7-29.7V29.7
		C400,13.3,386.7,0,370.3,0z"/>
</g>
<g>
	<g>
		<g>
			<path class="st1" d="M61.9,274.8c7.9,1.4,10.5,4.9,10.5,11.8v1c0,8.1-4,12-16.5,12c-3.1,0-7.4,0.1-15-0.1l1.3-6.8
				c6.4,0.2,9.9,0.1,13.9,0.1c6.7,0,8.2-1.1,8.2-5.2c0-3.6-0.7-4.8-5.3-5.5l-7.3-1.2c-8.7-1.4-10.7-5-10.7-11.6v-1.1
				c0-7.2,4.1-11.6,15.9-11.6c4.4,0,7.3-0.1,14.2,0.1l-1.3,6.8c-6-0.2-9.8-0.1-13.4-0.1c-6,0-7.5,1.1-7.5,5c0,3.2,0.7,4.5,5.1,5.2
				L61.9,274.8z"/>
		</g>
		<g>
			<path class="st1" d="M98.2,299.4v-17.7l-15.6-25.1h8.9l10.9,18.4l10.7-18.4h8.7l-15.5,25v17.8H98.2z"/>
		</g>
		<g>
			<path class="st1" d="M153,274.8c7.9,1.4,10.5,4.9,10.5,11.8v1c0,8.1-4,12-16.5,12c-3.1,0-7.4,0.1-15-0.1l1.3-6.8
				c6.4,0.2,9.9,0.1,13.9,0.1c6.7,0,8.2-1.1,8.2-5.2c0-3.6-0.7-4.8-5.3-5.5l-7.3-1.2c-8.7-1.4-10.7-5-10.7-11.6v-1.1
				c0-7.2,4.1-11.6,15.9-11.6c4.4,0,7.3-0.1,14.2,0.1l-1.3,6.8c-6-0.2-9.8-0.1-13.4-0.1c-6,0-7.5,1.1-7.5,5c0,3.2,0.7,4.5,5.1,5.2
				L153,274.8z"/>
		</g>
		<g>
			<path class="st1" d="M212.6,256.7l-1.3,6.9h-13.6v35.9h-8v-35.9h-14.7l1.3-6.9H212.6z"/>
		</g>
		<g>
			<path class="st1" d="M256.5,256.7l-1.4,6.9h-20.9v10.5h20.6l-1.3,6.9h-19.2v11.5h22.4l-1.3,6.9h-29v-42.8H256.5z"/>
		</g>
		<g>
			<path class="st1" d="M305.5,299.4v-30.6l-9.7,18.5h-6.7l-9.8-18.1v30.2h-8v-42.8h8.8l12.6,23.3l11.9-23.3h8.9v42.8H305.5z"/>
		</g>
		<g>
			<path class="st1" d="M348.9,274.8c7.9,1.4,10.5,4.9,10.5,11.8v1c0,8.1-4,12-16.5,12c-3.1,0-7.4,0.1-15-0.1l1.3-6.8
				c6.4,0.2,9.9,0.1,13.9,0.1c6.7,0,8.2-1.1,8.2-5.2c0-3.6-0.7-4.8-5.3-5.5l-7.3-1.2c-8.7-1.4-10.7-5-10.7-11.6v-1.1
				c0-7.2,4.1-11.6,15.9-11.6c4.4,0,7.3-0.1,14.2,0.1l-1.3,6.8c-6-0.2-9.8-0.1-13.4-0.1c-6,0-7.5,1.1-7.5,5c0,3.2,0.7,4.5,5.1,5.2
				L348.9,274.8z"/>
		</g>
	</g>
	<g>
		<g>
			<path class="st1" d="M66.3,145.5v13.9c0,30.1,6,36.3,30.9,36.3c8.4,0,17.2,0.2,33.3-0.4l-3.9,20.4c-14,0.5-23.6,0.4-30.1,0.4
				c-41.8,0-54.8-14.9-54.8-56.9v-13.7c0-42.7,14.2-56.7,54.6-56.7c8,0,17.2-0.2,33.1,0.4l-3.9,20.4c-8-0.2-19.6-0.4-28.6-0.4
				C71.2,109.2,66.3,114.9,66.3,145.5z"/>
		</g>
		<g>
			<path class="st1" d="M66.3,145.5v13.9c0,30.1,6,36.3,30.9,36.3c8.4,0,17.2,0.2,33.3-0.4l-3.9,20.4c-14,0.5-23.6,0.4-30.1,0.4
				c-41.8,0-54.8-14.9-54.8-56.9v-13.7c0-42.7,14.2-56.7,54.6-56.7c8,0,17.2-0.2,33.1,0.4l-3.9,20.4c-8-0.2-19.6-0.4-28.6-0.4
				C71.2,109.2,66.3,114.9,66.3,145.5z"/>
		</g>
		<g>
			<path class="st1" d="M141.1,160.9v-17.2c0-37.5,10.3-58,55.7-58c44.8,0,55.8,18.8,55.8,58v17.2c0,37.5-10.3,58-55.8,58
				C152.1,218.9,141.1,200,141.1,160.9z M228.1,160.4v-16.2c0-32.4-5.9-38.4-31.3-38.4c-25.6,0-31.1,5.7-31.1,38.4v16.2
				c0,32.4,5.5,38.4,31.1,38.4C222.2,198.8,228.1,193.1,228.1,160.4z"/>
		</g>
		<g>
			<path class="st1" d="M328.5,142.8c23.5,4.3,31.1,14.4,31.1,35v2.8c0,24-11.7,35.4-48.7,35.4c-9.1,0-21.9,0.2-44.5-0.4l3.7-20.1
				c18.8,0.5,29.3,0.4,41.1,0.4c19.9,0,24.4-3.4,24.4-15.5c0-10.7-2.1-14-15.8-16.4l-21.5-3.6c-25.6-4.3-31.7-14.9-31.7-34.3v-3.2
				c0-21.3,12.3-34.3,47.1-34.3c13.2,0,21.7-0.2,42.1,0.4l-3.7,20.1c-17.8-0.5-29-0.4-39.7-0.4c-17.8,0-22.2,3.4-22.2,14.8
				c0,9.6,2.1,13.3,15.1,15.3L328.5,142.8z"/>
		</g>
	</g>
	<g>
		<rect x="39.6" y="233.5" class="st1" width="320.9" height="6.7"/>
	</g>
</g>
</svg>
